<svg width="36" height="36" viewBox="0 0 36 36" fill="none" xmlns="http://www.w3.org/2000/svg">
<path d="M31.75 3H26.75V1.75C26.75 1.41848 26.6183 1.10054 26.3839 0.866116C26.1495 0.631696 25.8315 0.5 25.5 0.5C25.1685 0.5 24.8505 0.631696 24.6161 0.866116C24.3817 1.10054 24.25 1.41848 24.25 1.75V3H11.75V1.75C11.75 1.41848 11.6183 1.10054 11.3839 0.866116C11.1495 0.631696 10.8315 0.5 10.5 0.5C10.1685 0.5 9.85054 0.631696 9.61612 0.866116C9.3817 1.10054 9.25 1.41848 9.25 1.75V3H4.25C3.25544 3 2.30161 3.39509 1.59835 4.09835C0.895088 4.80161 0.5 5.75544 0.5 6.75V31.75C0.5 32.7446 0.895088 33.6984 1.59835 34.4016C2.30161 35.1049 3.25544 35.5 4.25 35.5H31.75C32.7446 35.5 33.6984 35.1049 34.4016 34.4016C35.1049 33.6984 35.5 32.7446 35.5 31.75V6.75C35.5 5.75544 35.1049 4.80161 34.4016 4.09835C33.6984 3.39509 32.7446 3 31.75 3ZM4.25 5.5H31.75C32.0815 5.5 32.3995 5.6317 32.6339 5.86612C32.8683 6.10054 33 6.41848 33 6.75V10.5H3V6.75C3 6.41848 3.1317 6.10054 3.36612 5.86612C3.60054 5.6317 3.91848 5.5 4.25 5.5ZM31.75 33H4.25C3.91848 33 3.60054 32.8683 3.36612 32.6339C3.1317 32.3995 3 32.0815 3 31.75V13H33V31.75C33 32.0815 32.8683 32.3995 32.6339 32.6339C32.3995 32.8683 32.0815 33 31.75 33Z" fill="#BDBDBD"/>
</svg>
