<svg width="44" height="44" viewBox="0 0 44 44" fill="none" xmlns="http://www.w3.org/2000/svg">
<path d="M11 12.375H24.75C25.1147 12.375 25.4644 12.2301 25.7223 11.9723C25.9801 11.7144 26.125 11.3647 26.125 11C26.125 10.6353 25.9801 10.2856 25.7223 10.0277C25.4644 9.76987 25.1147 9.625 24.75 9.625H11C10.6353 9.625 10.2856 9.76987 10.0277 10.0277C9.76987 10.2856 9.625 10.6353 9.625 11C9.625 11.3647 9.76987 11.7144 10.0277 11.9723C10.2856 12.2301 10.6353 12.375 11 12.375Z" fill="#BDBDBD"/>
<path d="M11 17.875H24.75C25.1147 17.875 25.4644 17.7301 25.7223 17.4723C25.9801 17.2144 26.125 16.8647 26.125 16.5C26.125 16.1353 25.9801 15.7856 25.7223 15.5277C25.4644 15.2699 25.1147 15.125 24.75 15.125H11C10.6353 15.125 10.2856 15.2699 10.0277 15.5277C9.76987 15.7856 9.625 16.1353 9.625 16.5C9.625 16.8647 9.76987 17.2144 10.0277 17.4723C10.2856 17.7301 10.6353 17.875 11 17.875Z" fill="#BDBDBD"/>
<path d="M16.5 20.625H11C10.6353 20.625 10.2856 20.7699 10.0277 21.0277C9.76987 21.2856 9.625 21.6353 9.625 22C9.625 22.3647 9.76987 22.7144 10.0277 22.9723C10.2856 23.2301 10.6353 23.375 11 23.375H16.5C16.8647 23.375 17.2144 23.2301 17.4723 22.9723C17.7301 22.7144 17.875 22.3647 17.875 22C17.875 21.6353 17.7301 21.2856 17.4723 21.0277C17.2144 20.7699 16.8647 20.625 16.5 20.625Z" fill="#BDBDBD"/>
<path d="M39.875 18.4442C39.8765 17.9025 39.7706 17.3658 39.5634 16.8652C39.3561 16.3646 39.0517 15.9101 38.6677 15.5279C37.8818 14.7778 36.8371 14.3594 35.7507 14.3594C34.6643 14.3594 33.6196 14.7778 32.8336 15.5279L31.625 16.7365V6.875C31.625 5.78098 31.1904 4.73177 30.4168 3.95818C29.6432 3.1846 28.594 2.75 27.5 2.75H8.25C7.15598 2.75 6.10677 3.1846 5.33318 3.95818C4.5596 4.73177 4.125 5.78098 4.125 6.875V37.125C4.125 38.219 4.5596 39.2682 5.33318 40.0418C6.10677 40.8154 7.15598 41.25 8.25 41.25H27.5C28.594 41.25 29.6432 40.8154 30.4168 40.0418C31.1904 39.2682 31.625 38.219 31.625 37.125V28.402L38.6664 21.362C39.051 20.9799 39.3558 20.5252 39.5633 20.0243C39.7708 19.5235 39.8767 18.9864 39.875 18.4442ZM28.875 37.125C28.875 37.4897 28.7301 37.8394 28.4723 38.0973C28.2144 38.3551 27.8647 38.5 27.5 38.5H8.25C7.88533 38.5 7.53559 38.3551 7.27773 38.0973C7.01987 37.8394 6.875 37.4897 6.875 37.125V6.875C6.875 6.51033 7.01987 6.16059 7.27773 5.90273C7.53559 5.64487 7.88533 5.5 8.25 5.5H27.5C27.8647 5.5 28.2144 5.64487 28.4723 5.90273C28.7301 6.16059 28.875 6.51033 28.875 6.875V19.4865L19.8811 28.479C19.693 28.6673 19.5635 28.9061 19.5085 29.1665L18.4745 34.0904C18.4321 34.2906 18.435 34.4978 18.4829 34.6968C18.5308 34.8958 18.6225 35.0816 18.7514 35.2406C18.8803 35.3997 19.043 35.5279 19.2277 35.616C19.4125 35.7042 19.6146 35.7499 19.8192 35.75C19.9144 35.7499 20.0093 35.7402 20.1025 35.7211L25.0264 34.6857C25.2871 34.6308 25.5261 34.5008 25.7139 34.3118L28.8764 31.1493L28.875 37.125ZM36.7221 19.4164L24.0625 32.0788L21.5999 32.5957L22.1169 30.1345L34.7792 17.4721C35.0407 17.2212 35.389 17.0811 35.7514 17.0811C36.1137 17.0811 36.4621 17.2212 36.7235 17.4721C36.9813 17.73 37.1261 18.0796 37.1261 18.4442C37.1261 18.8088 36.9799 19.1585 36.7221 19.4164Z" fill="#BDBDBD"/>
</svg>
