<svg xmlns="http://www.w3.org/2000/svg" width="1440" height="35" viewBox="0 0 1440 35" fill="none">
  <path d="M5672.5 0C1036.42 0 -4148.31 0 -4232.5 0V15.1351C-4232.5 15.1351 -4226.82 0.945945 -4206.96 12.2973C-4195.61 18.9189 -4174.8 38.7838 -4153.99 33.1081C-4145.47 31.2162 -4139.8 15.1351 -4139.8 15.1351C-4139.8 15.1351 -4134.12 0.945945 -4114.26 12.2973C-4101.96 18.9189 -4081.15 38.7838 -4060.34 33.1081C-4051.82 31.2162 -4046.15 15.1351 -4046.15 15.1351C-4046.15 15.1351 -4040.47 0.945945 -4020.61 12.2973C-4009.26 18.9189 -3987.5 38.7838 -3967.64 33.1081C-3959.12 31.2162 -3953.45 15.1351 -3953.45 15.1351C-3953.45 15.1351 -3947.77 0.945945 -3927.91 12.2973C-3916.55 18.9189 -3894.8 38.7838 -3874.93 33.1081C-3866.42 31.2162 -3860.74 15.1351 -3860.74 15.1351C-3860.74 15.1351 -3855.07 0.945945 -3835.2 12.2973C-3823.85 18.9189 -3802.09 38.7838 -3782.23 33.1081C-3773.72 31.2162 -3768.04 15.1351 -3768.04 15.1351C-3768.04 15.1351 -3762.36 0.945945 -3742.5 12.2973C-3731.15 18.9189 -3709.39 38.7838 -3689.53 33.1081C-3681.01 31.2162 -3675.34 15.1351 -3675.34 15.1351C-3675.34 15.1351 -3669.66 0.945945 -3649.8 12.2973C-3636.55 18.9189 -3614.8 38.7838 -3594.93 33.1081C-3586.42 31.2162 -3579.8 15.1351 -3579.8 15.1351C-3579.8 15.1351 -3574.12 0.945945 -3554.26 12.2973C-3542.91 18.9189 -3521.15 38.7838 -3501.28 33.1081C-3492.77 31.2162 -3487.09 15.1351 -3487.09 15.1351C-3487.09 15.1351 -3481.42 0.945945 -3461.55 12.2973C-3450.2 18.9189 -3428.45 38.7838 -3408.58 33.1081C-3400.07 31.2162 -3394.39 15.1351 -3394.39 15.1351C-3394.39 15.1351 -3388.72 0.945945 -3368.85 12.2973C-3356.55 18.9189 -3335.74 38.7838 -3314.93 33.1081C-3306.42 31.2162 -3300.74 15.1351 -3300.74 15.1351C-3300.74 15.1351 -3295.07 0.945945 -3275.2 12.2973C-3263.85 18.9189 -3242.09 38.7838 -3222.23 33.1081C-3213.72 31.2162 -3208.04 15.1351 -3208.04 15.1351C-3208.04 15.1351 -3202.36 0.945945 -3182.5 12.2973C-3171.15 18.9189 -3149.39 38.7838 -3129.53 33.1081C-3121.01 31.2162 -3115.34 15.1351 -3115.34 15.1351C-3115.34 15.1351 -3109.66 0.945945 -3089.8 12.2973C-3078.45 18.9189 -3056.69 38.7838 -3036.82 33.1081C-3028.31 31.2162 -3022.64 15.1351 -3022.64 15.1351C-3022.64 15.1351 -3016.96 0.945945 -2997.09 12.2973C-2985.74 18.9189 -2963.99 38.7838 -2944.12 33.1081C-2935.61 31.2162 -2929.93 15.1351 -2929.93 15.1351C-2929.93 15.1351 -2924.26 0.945945 -2904.39 12.2973C-2893.04 18.9189 -2871.28 38.7838 -2851.42 33.1081C-2842.91 31.2162 -2837.23 15.1351 -2837.23 15.1351C-2837.23 15.1351 -2831.55 0.945945 -2811.69 12.2973C-2800.34 18.9189 -2778.58 38.7838 -2758.72 33.1081C-2750.2 31.2162 -2744.53 15.1351 -2744.53 15.1351C-2744.53 15.1351 -2738.85 0.945945 -2718.99 12.2973C-2707.64 18.9189 -2685.88 38.7838 -2666.01 33.1081C-2657.5 31.2162 -2651.82 15.1351 -2651.82 15.1351C-2651.82 15.1351 -2646.15 0.945945 -2626.28 12.2973C-2614.93 18.9189 -2593.18 38.7838 -2573.31 33.1081C-2564.8 31.2162 -2559.12 15.1351 -2559.12 15.1351C-2559.12 15.1351 -2553.45 0.945945 -2533.58 12.2973C-2522.23 18.9189 -2500.47 38.7838 -2480.61 33.1081C-2472.09 31.2162 -2466.42 15.1351 -2466.42 15.1351C-2466.42 15.1351 -2460.74 0.945945 -2440.88 12.2973C-2429.53 18.9189 -2407.77 38.7838 -2387.91 33.1081C-2379.39 31.2162 -2373.72 15.1351 -2373.72 15.1351C-2373.72 15.1351 -2368.04 0.945945 -2348.18 12.2973C-2336.82 18.9189 -2315.07 38.7838 -2295.2 33.1081C-2286.69 31.2162 -2281.01 15.1351 -2281.01 15.1351C-2281.01 15.1351 -2275.34 0.945945 -2255.47 12.2973C-2244.12 18.9189 -2222.36 38.7838 -2202.5 33.1081C-2193.99 31.2162 -2188.31 15.1351 -2188.31 15.1351C-2188.31 15.1351 -2182.64 0.945945 -2162.77 12.2973C-2151.42 18.9189 -2129.66 38.7838 -2109.8 33.1081C-2101.28 31.2162 -2095.61 15.1351 -2095.61 15.1351C-2095.61 15.1351 -2089.93 0.945945 -2070.07 12.2973C-2058.72 18.9189 -2036.96 38.7838 -2017.09 33.1081C-2008.58 31.2162 -2002.91 15.1351 -2002.91 15.1351C-2002.91 15.1351 -1997.23 0.945945 -1977.36 12.2973C-1966.01 18.9189 -1944.26 38.7838 -1924.39 33.1081C-1915.88 31.2162 -1910.2 15.1351 -1910.2 15.1351C-1910.2 15.1351 -1904.53 0.945945 -1884.66 12.2973C-1873.31 18.9189 -1851.55 38.7838 -1831.69 33.1081C-1823.18 31.2162 -1817.5 15.1351 -1817.5 15.1351C-1817.5 15.1351 -1811.82 0.945945 -1791.96 12.2973C-1780.61 18.9189 -1758.85 38.7838 -1738.99 33.1081C-1730.47 31.2162 -1724.8 15.1351 -1724.8 15.1351C-1724.8 15.1351 -1719.12 0.945945 -1699.26 12.2973C-1687.91 18.9189 -1666.15 38.7838 -1646.28 33.1081C-1637.77 31.2162 -1632.09 15.1351 -1632.09 15.1351C-1632.09 15.1351 -1626.42 0.945945 -1606.55 12.2973C-1595.2 18.9189 -1573.45 38.7838 -1553.58 33.1081C-1545.07 31.2162 -1539.39 15.1351 -1539.39 15.1351C-1539.39 15.1351 -1533.72 0.945945 -1513.85 12.2973C-1502.5 18.9189 -1480.74 38.7838 -1460.88 33.1081C-1452.36 31.2162 -1446.69 15.1351 -1446.69 15.1351C-1446.69 15.1351 -1441.01 0.945945 -1421.15 12.2973C-1409.8 18.9189 -1388.04 38.7838 -1368.18 33.1081C-1359.66 31.2162 -1353.99 15.1351 -1353.99 15.1351C-1353.99 15.1351 -1348.31 0.945945 -1328.45 12.2973C-1317.09 18.9189 -1295.34 38.7838 -1275.47 33.1081C-1266.96 31.2162 -1261.28 15.1351 -1261.28 15.1351C-1261.28 15.1351 -1255.61 0.945945 -1235.74 12.2973C-1224.39 18.9189 -1202.64 38.7838 -1182.77 33.1081C-1174.26 31.2162 -1168.58 15.1351 -1168.58 15.1351C-1168.58 15.1351 -1162.91 0.945945 -1143.04 12.2973C-1131.69 18.9189 -1109.93 38.7838 -1090.07 33.1081C-1081.55 31.2162 -1075.88 15.1351 -1075.88 15.1351C-1075.88 15.1351 -1070.2 0.945945 -1050.34 12.2973C-1038.99 18.9189 -1017.23 38.7838 -997.365 33.1081C-988.851 31.2162 -983.176 15.1351 -983.176 15.1351C-983.176 15.1351 -977.5 0.945945 -957.635 12.2973C-946.284 18.9189 -924.527 38.7838 -904.662 33.1081C-896.149 31.2162 -890.473 15.1351 -890.473 15.1351C-890.473 15.1351 -884.797 0.945945 -864.932 12.2973C-853.581 18.9189 -831.824 38.7838 -811.959 33.1081C-803.446 31.2162 -797.77 15.1351 -797.77 15.1351C-797.77 15.1351 -792.095 0.945945 -772.23 12.2973C-760.879 18.9189 -739.122 38.7838 -719.257 33.1081C-710.743 31.2162 -705.068 15.1351 -705.068 15.1351C-705.068 15.1351 -699.392 0.945945 -679.527 12.2973C-668.176 18.9189 -646.419 38.7838 -626.554 33.1081C-618.041 31.2162 -612.365 15.1351 -612.365 15.1351C-612.365 15.1351 -606.689 0.945945 -586.824 12.2973C-575.473 18.9189 -553.716 38.7838 -533.851 33.1081C-525.338 31.2162 -519.662 15.1351 -519.662 15.1351C-519.662 15.1351 -513.986 0.945945 -494.122 12.2973C-482.77 18.9189 -461.014 38.7838 -441.149 33.1081C-432.635 31.2162 -426.96 15.1351 -426.96 15.1351C-426.96 15.1351 -421.284 0.945945 -401.419 12.2973C-390.068 18.9189 -368.311 38.7838 -348.446 33.1081C-339.932 31.2162 -334.257 15.1351 -334.257 15.1351C-334.257 15.1351 -328.581 0.945945 -308.716 12.2973C-297.365 18.9189 -275.608 38.7838 -255.743 33.1081C-247.23 31.2162 -241.554 15.1351 -241.554 15.1351C-241.554 15.1351 -235.878 0.945945 -216.013 12.2973C-204.662 18.9189 -182.905 38.7838 -163.041 33.1081C-154.527 31.2162 -148.851 15.1351 -148.851 15.1351C-148.851 15.1351 -143.176 0.945945 -123.311 12.2973C-111.959 18.9189 -90.2026 38.7838 -70.3379 33.1081C-61.8242 31.2162 -56.1489 15.1351 -56.1489 15.1351C-56.1489 15.1351 -50.4731 0.945945 -30.6079 12.2973C-19.2568 18.9189 2.5 38.7838 22.3647 33.1081C30.8784 31.2162 36.5537 15.1351 36.5537 15.1351C36.5537 15.1351 42.2295 0.945945 62.0947 12.2973C73.4458 18.9189 95.2026 38.7838 115.067 33.1081C123.581 31.2162 129.257 15.1351 129.257 15.1351C129.257 15.1351 134.932 0.945945 154.797 12.2973C166.148 18.9189 187.905 38.7838 207.77 33.1081C216.284 31.2162 221.959 15.1351 221.959 15.1351C221.959 15.1351 227.635 0.945945 247.5 12.2973C258.852 18.9189 280.608 38.7838 300.473 33.1081C308.986 31.2162 314.662 15.1351 314.662 15.1351C314.662 15.1351 320.338 0.945945 340.203 12.2973C351.554 18.9189 373.311 38.7838 393.176 33.1081C401.689 31.2162 407.365 15.1351 407.365 15.1351C407.365 15.1351 413.041 0.945945 432.905 12.2973C444.257 18.9189 466.013 38.7838 485.878 33.1081C494.392 31.2162 500.067 15.1351 500.067 15.1351C500.067 15.1351 505.743 0.945945 525.608 12.2973C536.959 18.9189 558.716 38.7838 578.581 33.1081C587.095 31.2162 592.77 15.1351 592.77 15.1351C592.77 15.1351 598.446 0.945945 618.311 12.2973C629.662 18.9189 651.419 38.7838 671.284 33.1081C679.797 31.2162 685.473 15.1351 685.473 15.1351C685.473 15.1351 691.148 0.945945 711.013 12.2973C722.365 18.9189 744.122 38.7838 763.986 33.1081C772.5 31.2162 778.176 15.1351 778.176 15.1351C778.176 15.1351 783.852 0.945945 803.716 12.2973C815.068 18.9189 836.824 38.7838 856.689 33.1081C865.203 31.2162 870.878 15.1351 870.878 15.1351C870.878 15.1351 876.554 0.945945 896.419 12.2973C907.771 18.9189 929.527 38.7838 949.392 33.1081C957.905 31.2162 963.581 15.1351 963.581 15.1351C963.581 15.1351 969.257 0.945945 989.122 12.2973C1000.47 18.9189 1022.23 38.7838 1042.09 33.1081C1050.61 31.2162 1056.28 15.1351 1056.28 15.1351C1056.28 15.1351 1061.96 0.945945 1081.82 12.2973C1093.18 18.9189 1114.93 38.7838 1134.8 33.1081C1143.31 31.2162 1148.99 15.1351 1148.99 15.1351C1148.99 15.1351 1154.66 0.945945 1174.53 12.2973C1185.88 18.9189 1207.64 38.7838 1227.5 33.1081C1236.01 31.2162 1241.69 15.1351 1241.69 15.1351C1241.69 15.1351 1247.37 0.945945 1267.23 12.2973C1278.58 18.9189 1300.34 38.7838 1320.2 33.1081C1328.72 31.2162 1334.39 15.1351 1334.39 15.1351C1334.39 15.1351 1340.07 0.945945 1359.93 12.2973C1371.28 18.9189 1393.04 38.7838 1412.91 33.1081C1421.42 31.2162 1427.09 15.1351 1427.09 15.1351C1427.09 15.1351 1432.77 0.945945 1452.64 12.2973C1463.99 18.9189 1485.74 38.7838 1505.61 33.1081C1514.12 31.2162 1519.8 15.1351 1519.8 15.1351C1519.8 15.1351 1525.47 0.945945 1545.34 12.2973C1556.69 18.9189 1578.45 38.7838 1598.31 33.1081C1606.82 31.2162 1612.5 15.1351 1612.5 15.1351C1612.5 15.1351 1618.18 0.945945 1638.04 12.2973C1649.39 18.9189 1671.15 38.7838 1691.01 33.1081C1699.53 31.2162 1705.2 15.1351 1705.2 15.1351C1705.2 15.1351 1710.88 0.945945 1730.74 12.2973C1742.09 18.9189 1763.85 38.7838 1783.72 33.1081C1792.23 31.2162 1797.91 15.1351 1797.91 15.1351C1797.91 15.1351 1803.58 0.945945 1823.45 12.2973C1834.8 18.9189 1856.55 38.7838 1876.42 33.1081C1884.93 31.2162 1890.61 15.1351 1890.61 15.1351C1890.61 15.1351 1896.28 0.945945 1916.15 12.2973C1927.5 18.9189 1949.26 38.7838 1969.12 33.1081C1977.63 31.2162 1983.31 15.1351 1983.31 15.1351C1983.31 15.1351 1988.99 0.945945 2008.85 12.2973C2020.2 18.9189 2041.96 38.7838 2061.82 33.1081C2070.34 31.2162 2076.01 15.1351 2076.01 15.1351C2076.01 15.1351 2081.69 0.945945 2101.55 12.2973C2112.91 18.9189 2134.66 38.7838 2154.53 33.1081C2163.04 31.2162 2168.72 15.1351 2168.72 15.1351C2168.72 15.1351 2174.39 0.945945 2194.26 12.2973C2205.61 18.9189 2227.36 38.7838 2247.23 33.1081C2255.74 31.2162 2261.42 15.1351 2261.42 15.1351C2261.42 15.1351 2267.09 0.945945 2286.96 12.2973C2298.31 18.9189 2320.07 38.7838 2339.93 33.1081C2348.45 31.2162 2354.12 15.1351 2354.12 15.1351C2354.12 15.1351 2359.8 0.945945 2379.66 12.2973C2391.01 18.9189 2412.77 38.7838 2432.63 33.1081C2441.15 31.2162 2446.82 15.1351 2446.82 15.1351C2446.82 15.1351 2452.5 0.945945 2472.36 12.2973C2483.72 18.9189 2505.47 38.7838 2525.34 33.1081C2533.85 31.2162 2539.53 15.1351 2539.53 15.1351C2539.53 15.1351 2545.2 0.945945 2565.07 12.2973C2576.42 18.9189 2598.18 38.7838 2618.04 33.1081C2626.55 31.2162 2632.23 15.1351 2632.23 15.1351C2632.23 15.1351 2637.91 0.945945 2657.77 12.2973C2669.12 18.9189 2690.88 38.7838 2710.74 33.1081C2719.26 31.2162 2724.93 15.1351 2724.93 15.1351C2724.93 15.1351 2730.61 0.945945 2750.47 12.2973C2761.82 18.9189 2783.58 38.7838 2803.45 33.1081C2811.96 31.2162 2817.63 15.1351 2817.63 15.1351C2817.63 15.1351 2823.31 0.945945 2843.18 12.2973C2854.53 18.9189 2876.28 38.7838 2896.15 33.1081C2904.66 31.2162 2910.34 15.1351 2910.34 15.1351C2910.34 15.1351 2916.01 0.945945 2935.88 12.2973C2947.23 18.9189 2968.99 38.7838 2988.85 33.1081C2997.36 31.2162 3003.04 15.1351 3003.04 15.1351C3003.04 15.1351 3008.72 0.945945 3028.58 12.2973C3039.93 18.9189 3061.69 38.7838 3081.55 33.1081C3090.07 31.2162 3095.74 15.1351 3095.74 15.1351C3095.74 15.1351 3101.42 0.945945 3121.28 12.2973C3132.64 18.9189 3154.39 38.7838 3174.26 33.1081C3182.77 31.2162 3188.45 15.1351 3188.45 15.1351C3188.45 15.1351 3194.12 0.945945 3213.99 12.2973C3225.34 18.9189 3247.09 38.7838 3266.96 33.1081C3275.47 31.2162 3281.15 15.1351 3281.15 15.1351C3281.15 15.1351 3286.82 0.945945 3306.69 12.2973C3318.04 18.9189 3339.8 38.7838 3359.66 33.1081C3368.18 31.2162 3373.85 15.1351 3373.85 15.1351C3373.85 15.1351 3379.53 0.945945 3399.39 12.2973C3410.74 18.9189 3432.5 38.7838 3452.36 33.1081C3460.88 31.2162 3466.55 15.1351 3466.55 15.1351C3466.55 15.1351 3472.23 0.945945 3492.09 12.2973C3503.45 18.9189 3525.2 38.7838 3545.07 33.1081C3553.58 31.2162 3559.26 15.1351 3559.26 15.1351C3559.26 15.1351 3564.93 0.945945 3584.8 12.2973C3596.15 18.9189 3617.91 38.7838 3637.77 33.1081C3646.28 31.2162 3651.96 15.1351 3651.96 15.1351C3651.96 15.1351 3657.64 0.945945 3677.5 12.2973C3688.85 18.9189 3710.61 38.7838 3730.47 33.1081C3738.99 31.2162 3744.66 15.1351 3744.66 15.1351C3744.66 15.1351 3750.34 0.945945 3770.2 12.2973C3781.55 18.9189 3803.31 38.7838 3823.18 33.1081C3831.69 31.2162 3837.36 15.1351 3837.36 15.1351C3837.36 15.1351 3843.04 0.945945 3862.91 12.2973C3874.26 18.9189 3896.01 38.7838 3915.88 33.1081C3924.39 31.2162 3930.07 15.1351 3930.07 15.1351C3930.07 15.1351 3935.74 0.945945 3955.61 12.2973C3966.96 18.9189 3988.72 38.7838 4008.58 33.1081C4017.09 31.2162 4022.77 15.1351 4022.77 15.1351C4022.77 15.1351 4028.45 0.945945 4048.31 12.2973C4059.66 18.9189 4081.42 38.7838 4101.28 33.1081C4109.8 31.2162 4115.47 15.1351 4115.47 15.1351C4115.47 15.1351 4121.15 0.945945 4141.01 12.2973C4152.37 18.9189 4174.12 38.7838 4193.99 33.1081C4202.5 31.2162 4208.18 15.1351 4208.18 15.1351C4208.18 15.1351 4213.85 0.945945 4233.72 12.2973C4245.07 18.9189 4266.82 38.7838 4286.69 33.1081C4295.2 31.2162 4300.88 15.1351 4300.88 15.1351C4300.88 15.1351 4306.55 0.945945 4326.42 12.2973C4337.77 18.9189 4359.53 38.7838 4379.39 33.1081C4387.91 31.2162 4393.58 15.1351 4393.58 15.1351C4393.58 15.1351 4399.26 0.945945 4419.12 12.2973C4430.47 18.9189 4452.23 38.7838 4472.09 33.1081C4480.61 31.2162 4486.28 15.1351 4486.28 15.1351C4486.28 15.1351 4491.96 0.945945 4511.82 12.2973C4523.18 18.9189 4544.93 38.7838 4564.8 33.1081C4573.31 31.2162 4578.99 15.1351 4578.99 15.1351C4578.99 15.1351 4584.66 0.945945 4604.53 12.2973C4615.88 18.9189 4637.63 38.7838 4657.5 33.1081C4666.01 31.2162 4671.69 15.1351 4671.69 15.1351C4671.69 15.1351 4677.36 0.945945 4697.23 12.2973C4708.58 18.9189 4730.34 38.7838 4750.2 33.1081C4758.72 31.2162 4764.39 15.1351 4764.39 15.1351C4764.39 15.1351 4770.07 0.945945 4789.93 12.2973C4801.28 18.9189 4823.04 38.7838 4842.91 33.1081C4851.42 31.2162 4857.09 15.1351 4857.09 15.1351C4857.09 15.1351 4862.77 0.945945 4882.63 12.2973C4893.99 18.9189 4915.74 38.7838 4935.61 33.1081C4944.12 31.2162 4949.8 15.1351 4949.8 15.1351C4949.8 15.1351 4955.47 0.945945 4975.34 12.2973C4986.69 18.9189 5008.45 38.7838 5028.31 33.1081C5036.82 31.2162 5042.5 15.1351 5042.5 15.1351C5042.5 15.1351 5048.18 0.945945 5068.04 12.2973C5079.39 18.9189 5101.15 38.7838 5121.01 33.1081C5129.53 31.2162 5135.2 15.1351 5135.2 15.1351C5135.2 15.1351 5140.88 0.945945 5160.74 12.2973C5172.09 18.9189 5193.85 38.7838 5213.72 33.1081C5222.23 31.2162 5227.91 15.1351 5227.91 15.1351C5227.91 15.1351 5233.58 0.945945 5253.45 12.2973C5264.8 18.9189 5286.55 38.7838 5306.42 33.1081C5314.93 31.2162 5320.61 15.1351 5320.61 15.1351C5320.61 15.1351 5326.28 0.945945 5346.15 12.2973C5357.5 18.9189 5379.26 38.7838 5399.12 33.1081C5407.63 31.2162 5413.31 15.1351 5413.31 15.1351C5413.31 15.1351 5418.99 0.945945 5438.85 12.2973C5450.2 18.9189 5471.96 38.7838 5491.82 33.1081C5500.34 31.2162 5506.01 15.1351 5506.01 15.1351C5506.01 15.1351 5511.69 0.945945 5531.55 12.2973C5542.9 18.9189 5564.66 38.7838 5584.53 33.1081C5593.04 31.2162 5598.72 15.1351 5598.72 15.1351C5598.72 15.1351 5604.39 0.945946 5623.31 11.3514V0H5672.5ZM-4206.96 13.2432C-4206.01 13.2432 -4206.01 14.1892 -4206.01 14.1892C-4206.01 13.2432 -4206.01 13.2432 -4206.96 13.2432Z" fill="white"/>
</svg>
